PathFileType	4	(X/Y/Z)	..\data\2014004\dynamic\2014004_C5_01.trc
DataRate	CameraRate	NumFrames	NumMarkers	Units	OrigDataRate	OrigDataStartFrame	OrigNumFrames
100.000000	100.000000	4	52	mm	100.000000	71	143
Frame#	Time	L_IAS			L_IPS			R_IPS			R_IAS			L_FTC			L_FLE			L_FME			L_FAX			L_TTC			L_FAL			L_TAM			L_FCC			L_FM1			L_FM2			L_FM5			R_FTC			R_FLE			R_FME			R_FAX			R_TTC			R_FAL			R_TAM			R_FCC			R_FM1			R_FM2			R_FM5			CV7			TV10			SXS			SJN			L_SIA			L_SRS			L_SAA			L_SAE			L_HLE			L_HME			L_UOA			L_RSP			L_UHE			L_HM2			L_HM5			R_SIA			R_SRS			R_SAA			R_SAE			R_HLE			R_HME			R_UOA			R_RSP			R_UHE			R_HM2			R_HM5			
		X1	Y1	Z1	X2	Y2	Z2	X3	Y3	Z3	X4	Y4	Z4	X5	Y5	Z5	X6	Y6	Z6	X7	Y7	Z7	X8	Y8	Z8	X9	Y9	Z9	X10	Y10	Z10	X11	Y11	Z11	X12	Y12	Z12	X13	Y13	Z13	X14	Y14	Z14	X15	Y15	Z15	X16	Y16	Z16	X17	Y17	Z17	X18	Y18	Z18	X19	Y19	Z19	X20	Y20	Z20	X21	Y21	Z21	X22	Y22	Z22	X23	Y23	Z23	X24	Y24	Z24	X25	Y25	Z25	X26	Y26	Z26	X27	Y27	Z27	X28	Y28	Z28	X29	Y29	Z29	X30	Y30	Z30	X31	Y31	Z31	X32	Y32	Z32	X33	Y33	Z33	X34	Y34	Z34	X35	Y35	Z35	X36	Y36	Z36	X37	Y37	Z37	X38	Y38	Z38	X39	Y39	Z39	X40	Y40	Z40	X41	Y41	Z41	X42	Y42	Z42	X43	Y43	Z43	X44	Y44	Z44	X45	Y45	Z45	X46	Y46	Z46	X47	Y47	Z47	X48	Y48	Z48	X49	Y49	Z49	X50	Y50	Z50	X51	Y51	Z51	X52	Y52	Z52	

72	0.71	964.0476684570315	961.3564453125002	-333.9908447265626	769.631286621094	991.3288574218752	-251.4867248535157	775.8792114257815	985.4670410156252	-159.6055603027344	974.3854980468752	964.1904907226565	-104.3211975097657	874.4061279296877	904.115173339844	-396.7120056152345	888.9149169921877	483.4183654785157	-345.8236999511719	906.9151611328127	492.0869140625001	-221.7011260986329	869.3753051757815	422.1518859863282	-350.7253112792969	935.7080688476565	404.3946228027345	-283.6800537109376	824.6989746093752	61.23079299926759	-306.5678710937501	848.4882812500002	84.47849273681642	-212.2712707519532	774.6479492187502	27.89701652526856	-252.1450958251954	984.1306152343752	27.80078315734864	-223.0746612548829	979.8868408203127	43.05241012573243	-281.2071838378907	948.2845458984377	19.16824531555176	-334.3010253906251	931.5643310546877	886.9116821289065	-37.21915435791016	1025.578979492188	492.3136291503907	-52.80833816528322	1065.463134765625	489.1621093750001	-177.5995330810547	997.7204589843752	450.3667297363282	-51.19585418701173	1060.161010742188	415.3536376953126	-94.73233795166017	777.7727050781252	164.3430328369141	-96.05609130859378	807.6265258789065	180.0127868652344	-189.0686492919922	716.1190185546876	159.3043670654297	-159.5833892822266	880.7534179687502	56.22161865234376	-174.9179229736328	880.6586914062502	72.74461364746095	-122.829216003418	849.6295166015627	64.82157135009767	-78.02857971191408	832.4522705078127	1471.880126953125	-246.0482330322266	752.1503906250001	1247.861450195313	-228.7570343017579	1001.991088867188	1200.698486328125	-236.0552062988282	954.968688964844	1387.9453125	-240.4402770996094	752.4054565429689	1274.20849609375	-352.6177062988282	782.050720214844	1413.935302734375	-322.0981750488282	821.8845825195315	1416.464599609375	-405.1331176757814	891.1856079101565	1420.220825195313	-432.884490966797	850.626403808594	1099.217163085938	-497.8210449218751	817.8203735351565	1099.041137695313	-418.884979248047	807.8864746093752	1083.41650390625	-468.0798950195314	964.2867431640627	854.988708496094	-455.9936523437501	898.2269287109377	856.2537841796877	-498.1137695312501	997.5400390625002	780.1346435546877	-467.1305541992189	896.7869873046877	764.0722045898439	-492.0926818847657	753.1057739257814	1276.093994140625	-113.8964080810547	785.0105590820315	1416.427978515625	-155.5433044433594	843.321228027344	1435.278442382813	-76.25256347656251	905.5773925781252	1435.698974609375	-59.86998748779298	787.5061035156252	1142.827758789063	53.636043548584	757.5648193359376	1132.052124023438	-31.93505096435548	738.4810180664064	1133.001708984375	20.6001091003418	862.1526489257815	879.566345214844	35.05074310302735	800.2543945312502	891.309509277344	84.05297088623048	868.962585449219	785.8037109375002	48.2665481567383	771.3759765625002	811.6916503906252	80.13125610351564	
73	0.72	979.1125488281252	960.866394042969	-335.1228637695313	785.1555786132815	991.9763793945315	-251.3461456298829	791.6812133789065	986.3937988281252	-159.3070220947266	990.3385009765627	964.923767089844	-105.5150909423828	888.083190917969	903.696472167969	-396.8056030273439	892.2588500976565	483.1447753906251	-345.5281677246094	910.8796997070315	491.3568725585939	-221.5729370117188	871.6871337890627	422.213348388672	-350.3182067871094	938.067810058594	403.4917602539064	-283.5454711914063	824.6492309570315	61.5167808532715	-305.4056091308594	849.1381835937502	84.65423583984376	-211.3317413330079	774.8660888671877	28.38200759887696	-250.6876373291016	984.5823974609377	27.47786521911622	-223.1723785400391	979.9815673828127	42.82769012451173	-280.9808654785157	947.974304199219	19.04507064819336	-334.0634460449219	948.2268676757815	888.421325683594	-37.62153625488282	1050.105590820313	495.4113159179689	-54.14199066162111	1090.080688476563	493.913055419922	-178.6552734375	1024.045043945313	451.662811279297	-52.90647888183595	1088.265380859375	419.9466552734376	-96.23194122314456	820.8267211914065	152.6154937744141	-98.87969207763675	850.0278320312502	170.7612609863282	-191.6753540039063	759.4175415039064	143.9044342041016	-162.5529174804688	932.052917480469	52.67897415161134	-177.1607513427735	930.1445312500002	69.05160522460939	-125.0567855834961	899.278747558594	58.80113601684572	-80.60524749755861	848.0108642578127	1471.958862304688	-246.2647094726563	767.6459350585939	1247.9609375	-229.2980957031251	1017.549987792969	1200.978271484375	-236.3215942382813	970.5867309570315	1388.20556640625	-240.5755004882813	768.685241699219	1274.288452148438	-353.5257263183594	797.6759033203127	1414.005004882813	-322.4187011718751	837.535095214844	1416.824340820313	-405.4369506835939	906.928649902344	1421.07666015625	-432.8773498535157	871.1373291015627	1099.766967773438	-499.3970031738282	838.4361572265627	1098.671020507813	-420.316375732422	828.9666748046877	1082.490234375	-469.5863342285157	993.7005004882815	859.7913818359377	-457.732879638672	927.261901855469	858.4026489257815	-499.108367919922	1029.491821289063	786.017517089844	-469.0806884765626	929.1138916015627	766.2532348632814	-492.6389465332032	768.3208618164065	1276.34033203125	-114.7444152832032	800.704528808594	1416.547729492188	-155.8536529541016	858.9749755859377	1435.4052734375	-76.56846618652345	921.1188964843752	1435.632568359375	-59.9492645263672	799.8728027343752	1143.760620117188	52.10144042968751	769.1033935546877	1134.293823242188	-33.52900314331055	751.1195068359376	1135.168579101563	18.8101921081543	865.8120117187502	878.3277587890627	35.02025604248048	804.2917480468752	892.4249267578127	84.02627563476564	868.3276977539065	783.6987915039065	47.64955139160157	772.0378417968752	814.0271606445315	80.06168365478517	
74	0.73	994.2174072265627	960.0550537109377	-336.2526855468751	800.679870605469	992.1973876953127	-251.1092376708985	807.4846801757815	986.860778808594	-158.9571380615235	1006.331665039063	965.3009033203127	-106.6630783081055	901.723571777344	902.911804199219	-396.8899536132814	895.8963012695315	482.8484191894532	-345.1368408203126	915.0732421875002	490.6016845703126	-221.3580017089844	874.2863769531252	422.2860107421876	-349.8067932128907	940.6839599609377	402.5316772460939	-283.3430175781251	824.5675048828127	61.90620422363283	-304.0594482421876	849.8671875000002	84.86122894287111	-210.2219390869141	775.1271972656252	28.95821571350098	-248.9998931884766	985.0396118164065	27.1301670074463	-223.2472686767579	980.0532226562502	42.59038925170899	-280.6985168457032	947.5905761718752	19.00745582580567	-333.7658081054688	964.906677246094	889.5723266601565	-37.95819473266602	1073.54833984375	497.929412841797	-55.48411178588869	1113.503295898438	498.0867004394532	-179.7073211669922	1049.481079101563	452.4071655273439	-54.60765838623048	1115.3369140625	424.201141357422	-97.71096038818362	864.9786376953127	140.7914428710938	-101.6360321044922	893.3105468750002	161.4373016357422	-194.2030334472657	804.1936035156252	128.399658203125	-165.4623413085938	983.8264770507815	49.6834182739258	-179.2726135253907	980.0775146484377	65.7448196411133	-127.1819534301758	949.5615844726565	53.27063751220705	-83.03934478759767	863.6425781250002	1471.728149414063	-246.3991241455079	783.102233886719	1247.797241210938	-229.8138122558594	1033.140380859375	1200.90283203125	-236.5833587646485	986.2756958007815	1388.1279296875	-240.6493377685547	784.9672851562502	1274.087158203125	-354.3606567382813	813.367370605469	1413.809814453125	-322.6802673339844	853.2285156250002	1416.912231445313	-405.6891479492189	922.7558593750002	1421.605834960938	-432.8172607421876	891.4300537109377	1100.095336914063	-500.9230957031251	858.9016723632815	1098.103881835938	-421.6631164550782	849.893493652344	1081.35205078125	-471.0198059082032	1022.93017578125	864.7844848632815	-459.4280700683595	956.2068481445315	860.667907714844	-500.014373779297	1061.2412109375	792.1943969726565	-470.9691162109376	961.3581542968752	768.6812133789065	-493.0196228027345	783.5698242187502	1276.284545898438	-115.534294128418	816.4859619140627	1416.366088867188	-156.0703277587891	874.7402343750002	1435.178344726563	-76.81092834472658	936.7610473632815	1435.196411132813	-59.94822311401369	812.2310791015627	1144.444213867188	50.64663314819337	780.7651977539065	1136.199584960938	-35.09464263916016	763.7785034179689	1137.005981445313	17.05008125305176	869.9036254882815	877.2297363281252	35.03107833862305	808.812438964844	893.5427246093752	84.00326538085939	868.3572387695315	781.9910888671877	47.19969558715821	773.4206542968752	816.4649658203127	80.08066558837892	
75	0.74	1009.365112304688	958.9180908203127	-337.3414306640626	816.1990356445315	991.9656372070315	-250.8072662353516	823.2786865234377	986.8242187500002	-158.6040954589844	1022.35595703125	965.3184814453127	-107.7146301269532	915.370544433594	901.7773437500002	-396.9689331054689	899.890808105469	482.5239868164064	-344.6543884277344	919.5699462890627	489.8263244628907	-221.0596466064454	877.2329711914065	422.3639526367189	-349.1962585449219	943.623962402344	401.5194091796876	-283.0827331542969	824.470397949219	62.41727828979494	-302.5560302734376	850.6804809570315	85.11710357666017	-208.9642944335938	775.447204589844	29.64965057373048	-247.1143188476563	985.4918212890627	26.79130172729493	-223.2934570312501	980.103942871094	42.3612289428711	-280.3736267089844	947.1463012695315	19.08049774169922	-333.4040832519532	981.5798339843752	890.323181152344	-38.23101043701173	1095.889404296875	499.7994995117189	-56.84141921997072	1135.722045898438	501.5816040039064	-180.764633178711	1074.021728515625	452.5927124023439	-56.29441452026369	1141.328979492188	428.0649719238282	-99.16062164306643	910.197937011719	129.2308959960938	-104.2526626586914	937.422790527344	152.3324127197266	-196.5899810791016	850.4319458007815	113.1524353027344	-168.2264862060547	1035.922607421875	47.50699615478516	-181.2101135253907	1030.364624023438	63.11854553222658	-129.156234741211	1000.401611328125	48.55826950073244	-85.26692199707033	879.352233886719	1471.190063476563	-246.4520263671876	798.5173339843752	1247.375854492188	-230.303451538086	1048.763061523438	1200.459228515625	-236.8333740234376	1002.039611816406	1387.704956054688	-240.6600952148438	801.233337402344	1273.619995117188	-355.1272888183594	829.1331176757815	1413.354614257813	-322.8875122070313	868.9910278320315	1416.7255859375	-405.8919372558595	938.6851806640627	1421.796875	-432.705780029297	911.490905761719	1100.18017578125	-502.3929443359376	879.1973266601565	1097.316528320313	-422.9288024902345	870.6409301757815	1079.99365234375	-472.3854370117189	1051.906860351563	869.9438476562502	-461.0552978515626	985.012145996094	863.036071777344	-500.8283996582032	1092.725341796875	798.653015136719	-472.7823791503907	993.460876464844	771.3430175781252	-493.2393798828126	798.8507080078127	1275.917358398438	-116.2760925292969	832.3501586914065	1415.882446289063	-156.1982727050782	890.6020507812502	1434.59423828125	-76.9822463989258	952.486267089844	1434.3916015625	-59.86397933959962	824.6118774414065	1144.861083984375	49.29611206054689	792.6083984375002	1137.725708007813	-36.59727096557618	776.4776611328127	1138.497192382813	15.35809135437012	874.4890747070315	876.2085571289065	35.08271026611329	813.861755371094	894.5935058593752	83.98801422119142	869.1482543945315	780.5980224609377	46.90854263305665	775.586120605469	818.8990478515627	80.1771926879883	
